<?xml version="1.0" encoding="UTF-8" standalone="no"?>
<!DOCTYPE svg PUBLIC "-//W3C//DTD SVG 1.1//EN" "http://www.w3.org/Graphics/SVG/1.1/DTD/svg11.dtd">
<svg width="100%" height="100%" viewBox="0 0 400 400" version="1.1" xmlns="http://www.w3.org/2000/svg" xmlns:xlink="http://www.w3.org/1999/xlink" xml:space="preserve" xmlns:serif="http://www.serif.com/" style="fill-rule:evenodd;clip-rule:evenodd;">
    <g>
        <path d="M147.333,62.332L147.333,86.333C147.333,86.333 123.214,94.721 123.333,101.666C123.417,106.587 140.666,110.999 140.666,110.999L127.333,270.999C127.333,270.999 212,320.999 242.666,302.999C273.332,284.999 224.666,112.999 224.666,112.999C224.666,112.999 242.686,104.526 241.999,98.999C241.117,91.895 214.166,86.332 214.166,86.332L214.166,62.332L147.333,62.332Z" style="fill:rgb(63,169,245);fill-rule:nonzero;stroke:rgb(63,169,245);stroke-width:1px;"/>
        <path d="M148.333,62.333L148.333,42.333" style="fill:none;fill-rule:nonzero;stroke:rgb(63,169,245);stroke-width:2px;"/>
        <path d="M213,62.333L213,42.333" style="fill:none;fill-rule:nonzero;stroke:rgb(63,169,245);stroke-width:2px;"/>
        <path d="M156.667,62.333L156.667,41" style="fill:none;fill-rule:nonzero;stroke:rgb(63,169,245);stroke-width:4px;"/>
        <path d="M205,62.333L205,41" style="fill:none;fill-rule:nonzero;stroke:rgb(63,169,245);stroke-width:4px;"/>
        <path d="M181.333,62.333L181.333,36.333" style="fill:none;fill-rule:nonzero;stroke:rgb(63,169,245);stroke-width:5px;"/>
        <path d="M132,45.667L181.333,36.334L231.333,45.667L187.112,15.532C187.112,15.532 184.993,5.923 181.334,6.001C177.383,6.085 175.418,15.532 175.418,15.532L132,45.667Z" style="fill:rgb(63,169,245);fill-rule:nonzero;stroke:rgb(63,169,245);stroke-width:1px;"/>
        <path d="M11,257.5C11,257.5 51.793,271.732 64.459,278.496C83.856,288.853 114.645,313.324 136.986,328.26C180.224,357.165 223.245,363.174 252.807,358.511C272.876,355.345 309.259,339.083 330.245,333.845C354.221,327.86 389,339.5 389,339.5C389,339.5 375.548,320.105 362.312,312.026C353.086,306.396 345,301 321,301C308.465,301 288.713,305.236 278.5,308.75C267.198,312.639 256.468,320.468 231.333,320.468C204.222,320.468 151.316,301.137 126.597,290C107.583,281.434 78.36,268.974 60,259.085C47.376,252.286 11,257.5 11,257.5Z" style="fill:rgb(63,169,245);fill-rule:nonzero;stroke:rgb(63,169,245);stroke-width:1px;"/>
        <path d="M61.611,291.896C61.611,291.896 97.681,341.181 112.433,355.087C132.736,374.227 171.059,396.797 219.111,387.896C262.299,379.896 262.111,372.396 262.111,372.396C262.111,372.396 219.119,378.857 189.682,367.896C170.772,360.855 135.61,340.473 118.744,329.396C104.463,320.018 61.611,291.896 61.611,291.896Z" style="fill:rgb(63,169,245);fill-rule:nonzero;stroke:rgb(63,169,245);stroke-width:1px;"/>
    </g>
</svg>
